# Made in Blockbench 5.1.4
mtllib ball_joint_socket.mtl

o socket
v 0.49999999999999994 0.0625 0.5
v 0.3749597283113837 0.5 0.9375
v 0.3984777716886161 0.2812500000000001 0.8788861141556921
v 0.4413861141556919 0.12111388584430804 0.7187499999999999
v 0.6250402716886162 0.5 0.9375
v 0.6015222283113838 0.2812500000000001 0.878886114155692
v 0.558613885844308 0.12111388584430804 0.71875
v 0.8202722283113839 0.5 0.8202722283113838
v 0.7773638858443083 0.2812500000000001 0.7773638858443082
v 0.6601361141556918 0.12111388584430804 0.6601361141556918
v 0.9375 0.5 0.6250402716886162
v 0.8788861141556921 0.2812500000000001 0.6015222283113838
v 0.7187499999999999 0.12111388584430804 0.558613885844308
v 0.9375 0.5 0.3749597283113838
v 0.8788861141556918 0.2812500000000001 0.39847777168861614
v 0.7187499999999999 0.12111388584430804 0.4413861141556919
v 0.8202722283113838 0.5 0.17972777168861626
v 0.7773638858443082 0.2812500000000001 0.22263611415569184
v 0.6601361141556918 0.12111388584430804 0.33986388584430816
v 0.6250402716886164 0.5 0.06250000000000006
v 0.6015222283113839 0.2812500000000001 0.12111388584430799
v 0.5586138858443082 0.12111388584430804 0.28125000000000006
v 0.3749597283113838 0.5 0.062499999999999944
v 0.3984777716886162 0.2812500000000001 0.12111388584430804
v 0.44138611415569196 0.12111388584430804 0.28125
v 0.17972777168861626 0.5 0.1797277716886163
v 0.22263611415569184 0.2812500000000001 0.222636114155692
v 0.33986388584430804 0.12111388584430804 0.33986388584430816
v 0.06250000000000006 0.5 0.3749597283113836
v 0.12111388584430804 0.2812500000000001 0.398477771688616
v 0.28125 0.12111388584430804 0.44138611415569184
v 0.06250000000000006 0.5 0.6250402716886162
v 0.12111388584430804 0.2812500000000001 0.6015222283113838
v 0.28125 0.12111388584430804 0.558613885844308
v 0.1797277716886162 0.5 0.8202722283113838
v 0.22263611415569184 0.2812500000000001 0.7773638858443083
v 0.33986388584430816 0.12111388584430804 0.6601361141556918
vt 0.8125 0.5
vt 0.875 0.25
vt 1 0.25
vt 1 0.5
vt 1 0.25
vt 0.875 0.25
vt 0.875 0
vt 0.0625 0.5
vt 0.125 0.25
vt 0.25 0.25
vt 0.25 0.5
vt 0.25 0.25
vt 0.125 0.25
vt 0.125 0
vt 0.25 0.5
vt 0.25 0.25
vt 0.375 0.25
vt 0.4375 0.5
vt 0.375 0.25
vt 0.25 0.25
vt 0.25 0
vt 0 0.5
vt 0 0.25
vt 0.125 0.25
vt 0.1875 0.5
vt 0.125 0.25
vt 0 0.25
vt 0 0
vt 0.1875 0.5
vt 0.1875 0.25
vt 0.3125 0.25
vt 0.375 0.5
vt 0.3125 0.25
vt 0.1875 0.25
vt 0.1875 0
vt 0.375 0.5
vt 0.375 0.25
vt 0.5 0.25
vt 0.5625 0.5
vt 0.5 0.25
vt 0.375 0.25
vt 0.375 0
vt 0.5625 0.5
vt 0.5625 0.25
vt 0.6875 0.25
vt 0.75 0.5
vt 0.6875 0.25
vt 0.5625 0.25
vt 0.6875 0
vt 0.75 0.5
vt 0.75 0.25
vt 0.875 0.25
vt 0.9375 0.5
vt 0.875 0.25
vt 0.75 0.25
vt 0.875 0
vt 0.0625 0.5
vt 0.0625 0.25
vt 0.1875 0.25
vt 0.25 0.5
vt 0.1875 0.25
vt 0.0625 0.25
vt 0.1875 0
vt 0.25 0.5
vt 0.3125 0.25
vt 0.4375 0.25
vt 0.4375 0.5
vt 0.4375 0.25
vt 0.3125 0.25
vt 0.4375 0
vt 0.4375 0.5
vt 0.5 0.25
vt 0.625 0.25
vt 0.625 0.5
vt 0.625 0.25
vt 0.5 0.25
vt 0.625 0
vt 0.625 0.5
vt 0.6875 0.25
vt 0.8125 0.25
vt 0.8125 0.5
vt 0.8125 0.25
vt 0.6875 0.25
vt 0.8125 0
vt 0.75 0.75
vt 0.8125 0.5
vt 1 0.5
vt 1 0.75
vt 0 0.75
vt 0.0625 0.5
vt 0.25 0.5
vt 0.25 0.75
vt 0.25 0.75
vt 0.25 0.5
vt 0.4375 0.5
vt 0.5 0.75
vt 0 0.75
vt 0 0.5
vt 0.1875 0.5
vt 0.25 0.75
vt 0.1875 0.75
vt 0.1875 0.5
vt 0.375 0.5
vt 0.4375 0.75
vt 0.375 0.75
vt 0.375 0.5
vt 0.5625 0.5
vt 0.625 0.75
vt 0.75 0.75
vt 0.75 0.5
vt 0.9375 0.5
vt 1 0.75
vt 0 0.75
vt 0.0625 0.5
vt 0.25 0.5
vt 0.25 0.75
vt 0.1875 0.75
vt 0.25 0.5
vt 0.4375 0.5
vt 0.4375 0.75
vt 0.375 0.75
vt 0.4375 0.5
vt 0.625 0.5
vt 0.625 0.75
vt 0.5625 0.75
vt 0.625 0.5
vt 0.8125 0.5
vt 0.8125 0.75
vt 0.0625 0.3749999999999998
vt 0.0625 0.6249999999999998
vt 0.18749999999999994 0.8125
vt 0.18750000000000006 0.1874999999999999
vt 0.3749999999999999 0.9375
vt 0.6249999999999999 0.9375
vt 0.8125 0.8125
vt 0.18749999999999994 0.8125
vt 0.9375 0.6250000000000002
vt 0.9375 0.3750000000000002
vt 0.8125000000000001 0.1875000000000001
vt 0.8124999999999999 0.8125
vt 0.6250000000000001 0.0625
vt 0.3750000000000001 0.0625
vt 0.18750000000000006 0.1875
vt 0.8125 0.1875
vt 0.18749999999999994 0.8125
vt 0.8125 0.8125
vt 0.8125 0.1875
vt 0.18750000000000006 0.1875
vt 0.5625 0.75
vt 0.5625 0.5
vt 0.75 0.5
vt 0.8125 0.75
vn -1.3068491450189366e-16 -0.7071067811865478 0.7071067811865472
vn -6.127960528149731e-17 -0.9659258262890683 0.25881904510252063
vn 0.35355339059327373 -0.7071067811865475 0.6123724356957946
vn 0.12940952255126031 -0.9659258262890684 0.22414386804201333
vn 0.6123724356957946 -0.7071067811865477 0.35355339059327345
vn 0.22414386804201328 -0.9659258262890683 0.12940952255126026
vn 0.7071067811865472 -0.7071067811865478 0
vn 0.25881904510252063 -0.9659258262890683 0
vn 0.6123724356957947 -0.7071067811865475 -0.35355339059327384
vn 0.22414386804201328 -0.9659258262890683 -0.12940952255126031
vn 0.3535533905932739 -0.7071067811865476 -0.6123724356957945
vn 0.12940952255126037 -0.9659258262890683 -0.2241438680420132
vn 1.3068491450189366e-16 -0.7071067811865477 -0.7071067811865475
vn 6.127960528149726e-17 -0.9659258262890684 -0.2588190451025206
vn -0.35355339059327395 -0.7071067811865474 -0.6123724356957948
vn -0.1294095225512603 -0.9659258262890684 -0.22414386804201328
vn -0.6123724356957948 -0.7071067811865474 -0.3535533905932739
vn -0.22414386804201325 -0.9659258262890685 -0.12940952255126031
vn -0.7071067811865476 -0.7071067811865475 0
vn -0.25881904510252063 -0.9659258262890684 0
vn -0.6123724356957946 -0.7071067811865474 0.35355339059327406
vn -0.22414386804201328 -0.9659258262890683 0.1294095225512604
vn -0.3535533905932738 -0.7071067811865479 0.612372435695794
vn -0.1294095225512604 -0.9659258262890684 0.2241438680420133
vn 5.281567939668412e-16 -0.25881904510252035 0.9659258262890684
vn 0.48075028264517894 -0.27480295294323304 0.8326839152945492
vn 0.8365163037378082 -0.2588190451025202 0.48296291314453405
vn 0.9659258262890684 -0.25881904510252024 -1.0563135879336823e-15
vn 0.8326839152945492 -0.2748029529432333 -0.4807502826451789
vn 0.48296291314453454 -0.25881904510252024 -0.8365163037378078
vn -0.48075028264517977 -0.2748029529432333 -0.8326839152945488
vn -0.8365163037378077 -0.2588190451025203 -0.48296291314453477
vn -0.9659258262890684 -0.2588190451025204 0
vn -0.8326839152945492 -0.27480295294323304 0.48075028264517894
vn -0.48296291314453427 -0.25881904510251996 0.836516303737808
vn 0 1 0
vn 0 1 0
vn 0 1 0
vn 0 1 0
vn 0 1 0
vn -2.640783969834206e-16 -0.2588190451025202 -0.9659258262890685
usemtl m_dd9f5db8-5465-8c51-a5bc-f42c9da522b0
f 3/1/1 4/2/1 7/3/1 6/4/1
f 7/5/2 4/6/2 1/7/2
f 6/8/3 7/9/3 10/10/3 9/11/3
f 10/12/4 7/13/4 1/14/4
f 9/15/5 10/16/5 13/17/5 12/18/5
f 13/19/6 10/20/6 1/21/6
f 12/22/7 13/23/7 16/24/7 15/25/7
f 16/26/8 13/27/8 1/28/8
f 15/29/9 16/30/9 19/31/9 18/32/9
f 19/33/10 16/34/10 1/35/10
f 18/36/11 19/37/11 22/38/11 21/39/11
f 22/40/12 19/41/12 1/42/12
f 21/43/13 22/44/13 25/45/13 24/46/13
f 25/47/14 22/48/14 1/49/14
f 24/50/15 25/51/15 28/52/15 27/53/15
f 28/54/16 25/55/16 1/56/16
f 27/57/17 28/58/17 31/59/17 30/60/17
f 31/61/18 28/62/18 1/63/18
f 30/64/19 31/65/19 34/66/19 33/67/19
f 34/68/20 31/69/20 1/70/20
f 33/71/21 34/72/21 37/73/21 36/74/21
f 37/75/22 34/76/22 1/77/22
f 36/78/23 37/79/23 4/80/23 3/81/23
f 4/82/24 37/83/24 1/84/24
f 2/85/25 3/86/25 6/87/25 5/88/25
f 5/89/26 6/90/26 9/91/26 8/92/26
f 8/93/27 9/94/27 12/95/27 11/96/27
f 11/97/28 12/98/28 15/99/28 14/100/28
f 14/101/29 15/102/29 18/103/29 17/104/29
f 17/105/30 18/106/30 21/107/30 20/108/30
f 23/109/31 24/110/31 27/111/31 26/112/31
f 26/113/32 27/114/32 30/115/32 29/116/32
f 29/117/33 30/118/33 33/119/33 32/120/33
f 32/121/34 33/122/34 36/123/34 35/124/34
f 35/125/35 36/126/35 3/127/35 2/128/35
usemtl m_f45105f2-9f3d-0529-c657-da1fab28cfe5
f 11/129/36 14/130/36 17/131/36 8/132/36
f 2/133/37 5/134/37 8/135/37 35/136/37
f 29/137/38 32/138/38 35/139/38 26/140/38
f 20/141/39 23/142/39 26/143/39 17/144/39
f 35/145/40 8/146/40 17/147/40 26/148/40
usemtl m_dd9f5db8-5465-8c51-a5bc-f42c9da522b0
f 20/149/41 21/150/41 24/151/41 23/152/41
o cube
v 0.6875 0.125 0.6875
v 0.6875 0.125 0.3125
v 0.6875 0.0625 0.6875
v 0.6875 0.0625 0.3125
v 0.3125 0.125 0.3125
v 0.3125 0.125 0.6875
v 0.3125 0.0625 0.3125
v 0.3125 0.0625 0.6875
vt 0.0625 0.6875
vt 0.4375 0.6875
vt 0.4375 0.3125
vt 0.0625 0.3125
vn 0 -1 0
usemtl m_203370ef-8c1e-313d-799d-918241ed41c0
f 44/156/42 41/155/42 40/154/42 45/153/42
o cube
v 0.75 0.25 0.6875
v 0.75 0.25 0.3125
v 0.75 0 0.6875
v 0.75 0 0.3125
v 0.6875 0.25 0.3125
v 0.6875 0.25 0.6875
v 0.6875 0 0.3125
v 0.6875 0 0.6875
vt 0 0.6875
vt 0 0.6875
vt 0 0.6875
vt 0 0.6875
vt 0.0625 0.25
vt 0.4375 0.25
vt 0.4375 0
vt 0.0625 0
vt 0 0.6875
vt 0 0.6875
vt 0 0.6875
vt 0 0.6875
vt 0.0625 0.25
vt 0.4375 0.25
vt 0.4375 0
vt 0.0625 0
vt 0 0.6875
vt 0 0.6875
vt 0 0.6875
vt 0 0.6875
vt 0 0.6875
vt 0.0625 0.6875
vt 0.0625 0.3125
vt 0 0.3125
vn 0 0 -1
vn 1 0 0
vn 0 0 1
vn -1 0 0
vn 0 1 0
vn 0 -1 0
usemtl m_203370ef-8c1e-313d-799d-918241ed41c0
f 49/160/43 52/159/43 50/158/43 47/157/43
f 48/164/44 49/163/44 47/162/44 46/161/44
f 53/168/45 48/167/45 46/166/45 51/165/45
f 52/172/46 53/171/46 51/170/46 50/169/46
f 51/176/47 46/175/47 47/174/47 50/173/47
f 52/180/48 49/179/48 48/178/48 53/177/48
o cube
v 0.3125 0.25 0.6875
v 0.3125 0.25 0.3125
v 0.3125 0 0.6875
v 0.3125 0 0.3125
v 0.25 0.25 0.3125
v 0.25 0.25 0.6875
v 0.25 0 0.3125
v 0.25 0 0.6875
vt 0 0.6875
vt 0 0.6875
vt 0 0.6875
vt 0 0.6875
vt 0.0625 0.25
vt 0.4375 0.25
vt 0.4375 0
vt 0.0625 0
vt 0 0.6875
vt 0 0.6875
vt 0 0.6875
vt 0 0.6875
vt 0.0625 0.25
vt 0.4375 0.25
vt 0.4375 0
vt 0.0625 0
vt 0 0.6875
vt 0 0.6875
vt 0 0.6875
vt 0 0.6875
vt 0.4375 0.6875
vt 0.5 0.6875
vt 0.5 0.3125
vt 0.4375 0.3125
vn 0 0 -1
vn 1 0 0
vn 0 0 1
vn -1 0 0
vn 0 1 0
vn 0 -1 0
usemtl m_203370ef-8c1e-313d-799d-918241ed41c0
f 57/184/49 60/183/49 58/182/49 55/181/49
f 56/188/50 57/187/50 55/186/50 54/185/50
f 61/192/51 56/191/51 54/190/51 59/189/51
f 60/196/52 61/195/52 59/194/52 58/193/52
f 59/200/53 54/199/53 55/198/53 58/197/53
f 60/204/54 57/203/54 56/202/54 61/201/54
o cube
v 0.75 0.25 0.3125
v 0.75 0.25 0.25
v 0.75 0 0.3125
v 0.75 0 0.25
v 0.25 0.25 0.25
v 0.25 0.25 0.3125
v 0.25 0 0.25
v 0.25 0 0.3125
vt 0 0.25
vt 0.5 0.25
vt 0.5 0
vt 0 0
vt 0.4375 0.25
vt 0.5 0.25
vt 0.5 0
vt 0.4375 0
vt 0 0.25
vt 0.5 0.25
vt 0.5 0
vt 0 0
vt 0 0.25
vt 0.0625 0.25
vt 0.0625 0
vt 0 0
vt 0 0.75
vt 0.5 0.75
vt 0.5 0.6875
vt 0 0.6875
vn 0 0 -1
vn 1 0 0
vn 0 0 1
vn -1 0 0
vn 0 -1 0
usemtl m_203370ef-8c1e-313d-799d-918241ed41c0
f 65/208/55 68/207/55 66/206/55 63/205/55
f 64/212/56 65/211/56 63/210/56 62/209/56
f 69/216/57 64/215/57 62/214/57 67/213/57
f 68/220/58 69/219/58 67/218/58 66/217/58
f 68/224/59 65/223/59 64/222/59 69/221/59
o cube
v 0.75 0.25 0.75
v 0.75 0.25 0.6875
v 0.75 0 0.75
v 0.75 0 0.6875
v 0.25 0.25 0.6875
v 0.25 0.25 0.75
v 0.25 0 0.6875
v 0.25 0 0.75
vt 0 0.25
vt 0.5 0.25
vt 0.5 0
vt 0 0
vt 0 0.25
vt 0.0625 0.25
vt 0.0625 0
vt 0 0
vt 0 0.25
vt 0.5 0.25
vt 0.5 0
vt 0 0
vt 0.4375 0.25
vt 0.5 0.25
vt 0.5 0
vt 0.4375 0
vt 0 0.3125
vt 0.5 0.3125
vt 0.5 0.25
vt 0 0.25
vn 0 0 -1
vn 1 0 0
vn 0 0 1
vn -1 0 0
vn 0 -1 0
usemtl m_203370ef-8c1e-313d-799d-918241ed41c0
f 73/228/60 76/227/60 74/226/60 71/225/60
f 72/232/61 73/231/61 71/230/61 70/229/61
f 77/236/62 72/235/62 70/234/62 75/233/62
f 76/240/63 77/239/63 75/238/63 74/237/63
f 76/244/64 73/243/64 72/242/64 77/241/64
o cube
v 0.625 0.5 0.1875
v 0.625 0.5 0.0625
v 0.625 0.25 0.1875
v 0.625 0.25 0.0625
v 0.375 0.5 0.0625
v 0.375 0.5 0.1875
v 0.375 0.25 0.0625
v 0.375 0.25 0.1875
vt 0.625 0.625
vt 0.875 0.625
vt 0.875 0.375
vt 0.625 0.375
vt 0.5 0.625
vt 0.625 0.625
vt 0.625 0.375
vt 0.5 0.375
vt 0.875 0.625
vt 1 0.625
vt 1 0.375
vt 0.875 0.375
vt 0.625 0.375
vt 0.875 0.375
vt 0.875 0.25
vt 0.625 0.25
vn 0 0 -1
vn 1 0 0
vn -1 0 0
vn 0 -1 0
usemtl m_203370ef-8c1e-313d-799d-918241ed41c0
f 81/248/65 84/247/65 82/246/65 79/245/65
f 80/252/66 81/251/66 79/250/66 78/249/66
f 84/256/67 85/255/67 83/254/67 82/253/67
f 84/260/68 81/259/68 80/258/68 85/257/68
o cube
v 0.8125 0.5 0.6249999999999999
v 0.9375 0.5 0.6249999999999999
v 0.8125 0.25 0.6249999999999999
v 0.9375 0.25 0.6249999999999999
v 0.9375 0.5 0.3749999999999999
v 0.8125 0.5 0.37499999999999994
v 0.9375 0.25 0.3749999999999999
v 0.8125 0.25 0.37499999999999994
vt 0.625 0.625
vt 0.875 0.625
vt 0.875 0.375
vt 0.625 0.375
vt 0.5 0.625
vt 0.625 0.625
vt 0.625 0.375
vt 0.5 0.375
vt 0.875 0.625
vt 1 0.625
vt 1 0.375
vt 0.875 0.375
vt 0.625 0.375
vt 0.875 0.375
vt 0.875 0.25
vt 0.625 0.25
vn 1 0 -2.220446049250313e-16
vn 2.220446049250313e-16 0 1
vn -2.220446049250313e-16 0 -1
vn 0 -1 0
usemtl m_203370ef-8c1e-313d-799d-918241ed41c0
f 89/264/69 92/263/69 90/262/69 87/261/69
f 88/268/70 89/267/70 87/266/70 86/265/70
f 92/272/71 93/271/71 91/270/71 90/269/71
f 92/276/72 89/275/72 88/274/72 93/273/72
o cube
v 0.3749999999999995 0.5 0.8124999999999998
v 0.37499999999999933 0.5 0.9374999999999998
v 0.37499999999999944 0.24999999999999997 0.8124999999999998
v 0.3749999999999992 0.24999999999999997 0.9374999999999998
v 0.6249999999999993 0.49999999999999994 0.9375000000000002
v 0.6249999999999996 0.49999999999999994 0.8125000000000002
v 0.6249999999999992 0.24999999999999992 0.9375000000000002
v 0.6249999999999994 0.24999999999999994 0.8125000000000002
vt 0.625 0.625
vt 0.875 0.625
vt 0.875 0.375
vt 0.625 0.375
vt 0.5 0.625
vt 0.625 0.625
vt 0.625 0.375
vt 0.5 0.375
vt 0.875 0.625
vt 1 0.625
vt 1 0.375
vt 0.875 0.375
vt 0.625 0.375
vt 0.875 0.375
vt 0.875 0.25
vt 0.625 0.25
vn -1.6445178552260131e-15 -1.2246467991473512e-16 1
vn -1 1.2246467991473532e-16 -1.6445178552260131e-15
vn 1 -1.2246467991473532e-16 1.6445178552260131e-15
vn -1.2246467991473512e-16 -1 -1.2246467991473532e-16
usemtl m_203370ef-8c1e-313d-799d-918241ed41c0
f 97/280/73 100/279/73 98/278/73 95/277/73
f 96/284/74 97/283/74 95/282/74 94/281/74
f 100/288/75 101/287/75 99/286/75 98/285/75
f 100/292/76 97/291/76 96/290/76 101/289/76
o cube
v 0.1875 0.5 0.37499999999999994
v 0.0625 0.5 0.3749999999999999
v 0.18750000000000006 0.25 0.37499999999999994
v 0.06250000000000006 0.25 0.3749999999999999
v 0.062499999999999944 0.5 0.6249999999999999
v 0.18749999999999994 0.5 0.6249999999999999
v 0.0625 0.25 0.6249999999999999
v 0.1875 0.25 0.6249999999999999
vt 0.625 0.625
vt 0.875 0.625
vt 0.875 0.375
vt 0.625 0.375
vt 0.5 0.625
vt 0.625 0.625
vt 0.625 0.375
vt 0.5 0.375
vt 0.875 0.625
vt 1 0.625
vt 1 0.375
vt 0.875 0.375
vt 0.625 0.375
vt 0.875 0.375
vt 0.875 0.25
vt 0.625 0.25
vn -1 -1.1655923932754172e-19 -2.220446049250313e-16
vn 2.220446049250313e-16 2.5881350246846173e-35 -1
vn -2.220446049250313e-16 -2.5881350246846173e-35 1
vn 1.1655923932754172e-19 -1 1.384428809442595e-35
usemtl m_203370ef-8c1e-313d-799d-918241ed41c0
f 105/296/77 108/295/77 106/294/77 103/293/77
f 104/300/78 105/299/78 103/298/78 102/297/78
f 108/304/79 109/303/79 107/302/79 106/301/79
f 108/308/80 105/307/80 104/306/80 109/305/80