# Made in Blockbench 5.1.4
mtllib ball_joint_ball.mtl

o cube
v 0.875 1 1
v 0.875 1 0.875
v 0.875 0.75 1
v 0.875 0.75 0.875
v 0.125 1 0.875
v 0.125 1 1
v 0.125 0.75 0.875
v 0.125 0.75 1
vt 0.125 1
vt 0.875 1
vt 0.875 0.75
vt 0.125 0.75
vt 0.125 1
vt 0.875 1
vt 0.875 0.75
vt 0.125 0.75
vt 0.125 0.125
vt 0.875 0.125
vt 0.875 0
vt 0.125 0
vt 0.125 1
vt 0.875 1
vt 0.875 0.875
vt 0.125 0.875
vn 0 0 -1
vn 0 0 1
vn 0 1 0
vn 0 -1 0
usemtl m_203370ef-8c1e-313d-799d-918241ed41c0
f 4/4/1 7/3/1 5/2/1 2/1/1
f 8/8/2 3/7/2 1/6/2 6/5/2
usemtl m_50b1ffca-ac46-d9d3-783d-5303afa776b4
f 6/12/3 1/11/3 2/10/3 5/9/3
usemtl m_8cd855f3-e10d-d660-b2f6-21e7031aa4e2
f 7/16/4 4/15/4 3/14/4 8/13/4
o cube
v 0.875 1 0.875
v 0.875 1 0.75
v 0.875 0.875 0.875
v 0.875 0.875 0.75
v 0.125 1 0.75
v 0.125 1 0.875
v 0.125 0.875 0.75
v 0.125 0.875 0.875
vt 0.125 0.8125
vt 0.875 0.8125
vt 0.875 0.6875
vt 0.125 0.6875
vt 0.125 0.25
vt 0.875 0.25
vt 0.875 0.125
vt 0.125 0.125
vt 0.125 0.875
vt 0.875 0.875
vt 0.875 0.75
vt 0.125 0.75
vn 0 0 -1
vn 0 1 0
vn 0 -1 0
usemtl m_50b1ffca-ac46-d9d3-783d-5303afa776b4
f 12/20/5 15/19/5 13/18/5 10/17/5
usemtl m_8cd855f3-e10d-d660-b2f6-21e7031aa4e2
f 14/24/6 9/23/6 10/22/6 13/21/6
f 15/28/7 12/27/7 11/26/7 16/25/7
o cube
v 0.875 1 0.75
v 0.875 1 0.25
v 0.875 0.875 0.75
v 0.875 0.875 0.25
v 0.75 1 0.25
v 0.75 1 0.75
v 0.75 0.875 0.25
v 0.75 0.875 0.75
vt 0.25 0.8125
vt 0.75 0.8125
vt 0.75 0.6875
vt 0.25 0.6875
vt 0.75 0.75
vt 0.875 0.75
vt 0.875 0.25
vt 0.75 0.25
vt 0.75 0.75
vt 0.875 0.75
vt 0.875 0.25
vt 0.75 0.25
vn -1 0 0
vn 0 1 0
vn 0 -1 0
usemtl m_50b1ffca-ac46-d9d3-783d-5303afa776b4
f 23/32/8 24/31/8 22/30/8 21/29/8
usemtl m_8cd855f3-e10d-d660-b2f6-21e7031aa4e2
f 22/36/9 17/35/9 18/34/9 21/33/9
f 23/40/10 20/39/10 19/38/10 24/37/10
o cube
v 0.25 1 0.75
v 0.25 1 0.25
v 0.25 0.875 0.75
v 0.25 0.875 0.25
v 0.125 1 0.25
v 0.125 1 0.75
v 0.125 0.875 0.25
v 0.125 0.875 0.75
vt 0.25 0.8125
vt 0.75 0.8125
vt 0.75 0.6875
vt 0.25 0.6875
vt 0.125 0.75
vt 0.25 0.75
vt 0.25 0.25
vt 0.125 0.25
vt 0.125 0.75
vt 0.25 0.75
vt 0.25 0.25
vt 0.125 0.25
vn 1 0 0
vn 0 1 0
vn 0 -1 0
usemtl m_50b1ffca-ac46-d9d3-783d-5303afa776b4
f 27/44/11 28/43/11 26/42/11 25/41/11
usemtl m_8cd855f3-e10d-d660-b2f6-21e7031aa4e2
f 30/48/12 25/47/12 26/46/12 29/45/12
f 31/52/13 28/51/13 27/50/13 32/49/13
o cube
v 0.875 1 0.25
v 0.875 1 0.125
v 0.875 0.875 0.25
v 0.875 0.875 0.125
v 0.125 1 0.125
v 0.125 1 0.25
v 0.125 0.875 0.125
v 0.125 0.875 0.25
vt 0.125 0.8125
vt 0.875 0.8125
vt 0.875 0.6875
vt 0.125 0.6875
vt 0.125 0.875
vt 0.875 0.875
vt 0.875 0.75
vt 0.125 0.75
vt 0.125 0.25
vt 0.875 0.25
vt 0.875 0.125
vt 0.125 0.125
vn 0 0 1
vn 0 1 0
vn 0 -1 0
usemtl m_50b1ffca-ac46-d9d3-783d-5303afa776b4
f 40/56/14 35/55/14 33/54/14 38/53/14
usemtl m_8cd855f3-e10d-d660-b2f6-21e7031aa4e2
f 38/60/15 33/59/15 34/58/15 37/57/15
f 39/64/16 36/63/16 35/62/16 40/61/16
o cube
v 0.75 0.9437500000000001 0.75
v 0.75 0.9437500000000001 0.25
v 0.75 0.875 0.75
v 0.75 0.875 0.25
v 0.25 0.9437500000000001 0.25
v 0.25 0.9437500000000001 0.75
v 0.25 0.875 0.25
v 0.25 0.875 0.75
vt 0.25 0.75
vt 0.75 0.75
vt 0.75 0.25
vt 0.25 0.25
vt 0.25 0.75
vt 0.75 0.75
vt 0.75 0.25
vt 0.25 0.25
vn 0 1 0
vn 0 -1 0
usemtl m_50b1ffca-ac46-d9d3-783d-5303afa776b4
f 46/68/17 41/67/17 42/66/17 45/65/17
usemtl m_8cd855f3-e10d-d660-b2f6-21e7031aa4e2
f 47/72/18 44/71/18 43/70/18 48/69/18
o cube
v 0.875 1 0.125
v 0.875 1 0
v 0.875 0.75 0.125
v 0.875 0.75 0
v 0.125 1 0
v 0.125 1 0.125
v 0.125 0.75 0
v 0.125 0.75 0.125
vt 0.125 1
vt 0.875 1
vt 0.875 0.75
vt 0.125 0.75
vt 0.125 1
vt 0.875 1
vt 0.875 0.75
vt 0.125 0.75
vt 0.125 1
vt 0.875 1
vt 0.875 0.875
vt 0.125 0.875
vt 0.125 0.125
vt 0.875 0.125
vt 0.875 0
vt 0.125 0
vn 0 0 -1
vn 0 0 1
vn 0 1 0
vn 0 -1 0
usemtl m_203370ef-8c1e-313d-799d-918241ed41c0
f 52/76/19 55/75/19 53/74/19 50/73/19
f 56/80/20 51/79/20 49/78/20 54/77/20
usemtl m_50b1ffca-ac46-d9d3-783d-5303afa776b4
f 54/84/21 49/83/21 50/82/21 53/81/21
usemtl m_8cd855f3-e10d-d660-b2f6-21e7031aa4e2
f 55/88/22 52/87/22 51/86/22 56/85/22
o cube
v 1 1 1
v 1 1 0
v 1 0.75 1
v 1 0.75 0
v 0.875 1 0
v 0.875 1 1
v 0.875 0.75 0
v 0.875 0.75 1
vt 0 1
vt 0.125 1
vt 0.125 0.75
vt 0 0.75
vt 0 1
vt 1 1
vt 1 0.75
vt 0 0.75
vt 0.875 1
vt 1 1
vt 1 0.75
vt 0.875 0.75
vt 0 1
vt 1 1
vt 1 0.75
vt 0 0.75
vt 0.875 1
vt 1 1
vt 1 0
vt 0.875 0
vt 0.875 1
vt 1 1
vt 1 0
vt 0.875 0
vn 0 0 -1
vn 1 0 0
vn 0 0 1
vn -1 0 0
vn 0 1 0
vn 0 -1 0
usemtl m_203370ef-8c1e-313d-799d-918241ed41c0
f 60/92/23 63/91/23 61/90/23 58/89/23
f 59/96/24 60/95/24 58/94/24 57/93/24
f 64/100/25 59/99/25 57/98/25 62/97/25
f 63/104/26 64/103/26 62/102/26 61/101/26
usemtl m_50b1ffca-ac46-d9d3-783d-5303afa776b4
f 62/108/27 57/107/27 58/106/27 61/105/27
usemtl m_8cd855f3-e10d-d660-b2f6-21e7031aa4e2
f 63/112/28 60/111/28 59/110/28 64/109/28
o cube
v 0.125 1 1
v 0.125 1 0
v 0.125 0.75 1
v 0.125 0.75 0
v 0 1 0
v 0 1 1
v 0 0.75 0
v 0 0.75 1
vt 0.875 1
vt 1 1
vt 1 0.75
vt 0.875 0.75
vt 0 1
vt 1 1
vt 1 0.75
vt 0 0.75
vt 0 1
vt 0.125 1
vt 0.125 0.75
vt 0 0.75
vt 0 1
vt 1 1
vt 1 0.75
vt 0 0.75
vt 0 1
vt 0.125 1
vt 0.125 0
vt 0 0
vt 0 1
vt 0.125 1
vt 0.125 0
vt 0 0
vn 0 0 -1
vn 1 0 0
vn 0 0 1
vn -1 0 0
vn 0 1 0
vn 0 -1 0
usemtl m_203370ef-8c1e-313d-799d-918241ed41c0
f 68/116/29 71/115/29 69/114/29 66/113/29
f 67/120/30 68/119/30 66/118/30 65/117/30
f 72/124/31 67/123/31 65/122/31 70/121/31
f 71/128/32 72/127/32 70/126/32 69/125/32
usemtl m_50b1ffca-ac46-d9d3-783d-5303afa776b4
f 70/132/33 65/131/33 66/130/33 69/129/33
usemtl m_8cd855f3-e10d-d660-b2f6-21e7031aa4e2
f 71/136/34 68/135/34 67/134/34 72/133/34
o cube
v 0.625 0.875 0.625
v 0.625 0.875 0.375
v 0.625 0.8125 0.625
v 0.625 0.8125 0.375
v 0.375 0.875 0.375
v 0.375 0.875 0.625
v 0.375 0.8125 0.375
v 0.375 0.8125 0.625
vt 0.375 0.5
vt 0.625 0.5
vt 0.625 0.4375
vt 0.375 0.4375
vt 0.375 0.5
vt 0.625 0.5
vt 0.625 0.4375
vt 0.375 0.4375
vt 0.375 0.5
vt 0.625 0.5
vt 0.625 0.4375
vt 0.375 0.4375
vt 0.375 0.5
vt 0.625 0.5
vt 0.625 0.4375
vt 0.375 0.4375
vn 0 0 -1
vn 1 0 0
vn 0 0 1
vn -1 0 0
usemtl m_8cd855f3-e10d-d660-b2f6-21e7031aa4e2
f 76/140/35 79/139/35 77/138/35 74/137/35
f 75/144/36 76/143/36 74/142/36 73/141/36
f 80/148/37 75/147/37 73/146/37 78/145/37
f 79/152/38 80/151/38 78/150/38 77/149/38
o sphere
v 0.5 0.125 0.5
v 0.5 0.875 0.5
v 0.5970572881731269 0.824759375 0.6681078618413465
v 0.6681075693219833 0.6875 0.7911713578609814
v 0.6941145763462537 0.5 0.836215723682693
v 0.6681075693219833 0.3125 0.7911713578609814
v 0.5970572881731269 0.17524062499999998 0.6681078618413465
v 0.6681077155816649 0.824759375 0.5970570348439272
v 0.791171611190181 0.6875 0.6681080081010281
v 0.8362154311633299 0.5 0.6941140696878545
v 0.791171611190181 0.3125 0.6681080081010281
v 0.6681077155816649 0.17524062499999998 0.5970570348439272
v 0.6941143230170541 0.824759375 0.5000001462596816
v 0.8362155774230113 0.6875 0.49999974667080044
v 0.8882286460341082 0.5 0.5000002925193632
v 0.8362155774230113 0.3125 0.49999974667080044
v 0.6941143230170541 0.17524062499999998 0.5000001462596816
v 0.6681078618413465 0.824759375 0.40294271182687313
v 0.7911713578609814 0.6875 0.33189243067801666
v 0.836215723682693 0.5 0.30588542365374627
v 0.7911713578609814 0.3125 0.33189243067801666
v 0.6681078618413465 0.17524062499999998 0.40294271182687313
v 0.5970570348439272 0.824759375 0.33189228441833507
v 0.6681080081010281 0.6875 0.20882838880981897
v 0.6941140696878545 0.5 0.1637845688366702
v 0.6681080081010281 0.3125 0.20882838880981897
v 0.5970570348439272 0.17524062499999998 0.33189228441833507
v 0.5000001462596816 0.824759375 0.3058856769829459
v 0.49999974667080044 0.6875 0.1637844225769886
v 0.5000002925193632 0.5 0.11177135396589172
v 0.49999974667080044 0.3125 0.1637844225769886
v 0.5000001462596816 0.17524062499999998 0.3058856769829459
v 0.40294271182687313 0.824759375 0.3318921381586535
v 0.33189243067801666 0.6875 0.20882864213901858
v 0.30588542365374627 0.5 0.16378427631730702
v 0.33189243067801666 0.3125 0.20882864213901858
v 0.40294271182687313 0.17524062499999998 0.3318921381586535
v 0.33189228441833507 0.824759375 0.40294296515607275
v 0.20882838880981897 0.6875 0.3318919918989719
v 0.1637845688366702 0.5 0.30588593031214545
v 0.20882838880981897 0.3125 0.3318919918989719
v 0.33189228441833507 0.17524062499999998 0.40294296515607275
v 0.3058856769829459 0.824759375 0.4999998537403184
v 0.1637844225769886 0.6875 0.5000002533291996
v 0.11177135396589172 0.5 0.4999997074806368
v 0.1637844225769886 0.3125 0.5000002533291996
v 0.3058856769829459 0.17524062499999998 0.4999998537403184
v 0.3318921381586535 0.824759375 0.5970572881731269
v 0.20882864213901858 0.6875 0.6681075693219833
v 0.16378427631730702 0.5 0.6941145763462537
v 0.20882864213901858 0.3125 0.6681075693219833
v 0.3318921381586535 0.17524062499999998 0.5970572881731269
v 0.40294296515607275 0.824759375 0.6681077155816649
v 0.3318919918989719 0.6875 0.791171611190181
v 0.30588593031214545 0.5 0.8362154311633299
v 0.3318919918989719 0.3125 0.791171611190181
v 0.40294296515607275 0.17524062499999998 0.6681077155816649
v 0.4999998537403184 0.824759375 0.6941143230170541
v 0.5000002533291996 0.6875 0.8362155774230113
v 0.4999997074806368 0.5 0.8882286460341082
v 0.5000002533291996 0.3125 0.8362155774230113
v 0.4999998537403184 0.17524062499999998 0.6941143230170541
vt 0.125 0.8125
vt 0.25 0.8125
vt 0.1875 1
vt 0.125 0.9375
vt 0.125 0.75
vt 0.3125 0.75
vt 0.25 0.9375
vt 0.125 0.75
vt 0.125 0.5625
vt 0.3125 0.5625
vt 0.3125 0.75
vt 0.125 0.5625
vt 0.125 0.375
vt 0.3125 0.375
vt 0.3125 0.5625
vt 0.125 0.375
vt 0.125 0.1875
vt 0.25 0.1875
vt 0.3125 0.375
vt 0.25 0.1875
vt 0.125 0.1875
vt 0.1875 0
vt 0.3125 0.8125
vt 0.4375 0.8125
vt 0.375 1
vt 0.3125 0.9375
vt 0.3125 0.75
vt 0.5 0.75
vt 0.4375 0.9375
vt 0.3125 0.75
vt 0.3125 0.5625
vt 0.5 0.5625
vt 0.5 0.75
vt 0.3125 0.5625
vt 0.3125 0.375
vt 0.5 0.375
vt 0.5 0.5625
vt 0.3125 0.375
vt 0.3125 0.1875
vt 0.4375 0.1875
vt 0.5 0.375
vt 0.4375 0.1875
vt 0.3125 0.1875
vt 0.375 0
vt 0.5 0.8125
vt 0.625 0.8125
vt 0.5625 1
vt 0.5 0.9375
vt 0.5 0.75
vt 0.6875 0.75
vt 0.625 0.9375
vt 0.5 0.75
vt 0.5 0.5625
vt 0.6875 0.5625
vt 0.6875 0.75
vt 0.5 0.5625
vt 0.5 0.375
vt 0.6875 0.375
vt 0.6875 0.5625
vt 0.5 0.375
vt 0.5 0.1875
vt 0.625 0.1875
vt 0.6875 0.375
vt 0.625 0.1875
vt 0.5 0.1875
vt 0.5625 0
vt 0.625 0.8125
vt 0.75 0.8125
vt 0.6875 1
vt 0.625 0.9375
vt 0.625 0.75
vt 0.8125 0.75
vt 0.75 0.9375
vt 0.625 0.75
vt 0.625 0.5625
vt 0.8125 0.5625
vt 0.8125 0.75
vt 0.625 0.5625
vt 0.625 0.375
vt 0.8125 0.375
vt 0.8125 0.5625
vt 0.625 0.375
vt 0.6875 0.1875
vt 0.8125 0.1875
vt 0.8125 0.375
vt 0.8125 0.1875
vt 0.6875 0.1875
vt 0.75 0
vt 0.75 0.8125
vt 0.875 0.8125
vt 0.8125 1
vt 0.8125 0.9375
vt 0.8125 0.75
vt 1 0.75
vt 0.9375 0.9375
vt 0.8125 0.75
vt 0.8125 0.5625
vt 1 0.5625
vt 1 0.75
vt 0.8125 0.5625
vt 0.8125 0.375
vt 1 0.375
vt 1 0.5625
vt 0.8125 0.375
vt 0.875 0.1875
vt 1 0.1875
vt 1 0.375
vt 1 0.1875
vt 0.875 0.1875
vt 0.9375 0
vt 0.0625 0.8125
vt 0.1875 0.8125
vt 0.125 1
vt 0.0625 0.9375
vt 0 0.75
vt 0.1875 0.75
vt 0.1875 0.9375
vt 0 0.75
vt 0 0.5625
vt 0.1875 0.5625
vt 0.1875 0.75
vt 0 0.5625
vt 0 0.375
vt 0.1875 0.375
vt 0.1875 0.5625
vt 0 0.375
vt 0 0.1875
vt 0.125 0.1875
vt 0.1875 0.375
vt 0.125 0.1875
vt 0 0.1875
vt 0.0625 0
vt 0.25 0.8125
vt 0.375 0.8125
vt 0.3125 1
vt 0.25 0.9375
vt 0.1875 0.75
vt 0.375 0.75
vt 0.375 0.9375
vt 0.1875 0.75
vt 0.1875 0.5625
vt 0.375 0.5625
vt 0.375 0.75
vt 0.1875 0.5625
vt 0.1875 0.375
vt 0.375 0.375
vt 0.375 0.5625
vt 0.1875 0.375
vt 0.1875 0.1875
vt 0.3125 0.1875
vt 0.375 0.375
vt 0.375 0.1875
vt 0.25 0.1875
vt 0.3125 0
vt 0.375 0.8125
vt 0.5 0.8125
vt 0.4375 1
vt 0.375 0.9375
vt 0.3125 0.75
vt 0.5 0.75
vt 0.5 0.9375
vt 0.3125 0.75
vt 0.3125 0.5625
vt 0.5 0.5625
vt 0.5 0.75
vt 0.3125 0.5625
vt 0.3125 0.375
vt 0.5 0.375
vt 0.5 0.5625
vt 0.375 0.375
vt 0.4375 0.1875
vt 0.5625 0.1875
vt 0.5625 0.375
vt 0.5625 0.1875
vt 0.4375 0.1875
vt 0.5 0
vt 0.5625 0.8125
vt 0.6875 0.8125
vt 0.625 1
vt 0.5625 0.9375
vt 0.5 0.75
vt 0.6875 0.75
vt 0.6875 0.9375
vt 0.5 0.75
vt 0.5 0.5625
vt 0.6875 0.5625
vt 0.6875 0.75
vt 0.5 0.5625
vt 0.5 0.375
vt 0.6875 0.375
vt 0.6875 0.5625
vt 0.5 0.375
vt 0.5625 0.1875
vt 0.6875 0.1875
vt 0.6875 0.375
vt 0.6875 0.1875
vt 0.5625 0.1875
vt 0.625 0
vt 0.75 0.8125
vt 0.875 0.8125
vt 0.8125 1
vt 0.75 0.9375
vt 0.6875 0.75
vt 0.875 0.75
vt 0.875 0.9375
vt 0.6875 0.75
vt 0.6875 0.5625
vt 0.875 0.5625
vt 0.875 0.75
vt 0.6875 0.5625
vt 0.6875 0.375
vt 0.875 0.375
vt 0.875 0.5625
vt 0.6875 0.375
vt 0.75 0.1875
vt 0.875 0.1875
vt 0.875 0.375
vt 0.875 0.1875
vt 0.75 0.1875
vt 0.8125 0
vt 0.875 0.8125
vt 1 0.8125
vt 0.9375 1
vt 0.875 0.9375
vt 0.8125 0.75
vt 1 0.75
vt 1 0.9375
vt 0.8125 0.75
vt 0.8125 0.5625
vt 1 0.5625
vt 1 0.75
vt 0.8125 0.5625
vt 0.8125 0.375
vt 1 0.375
vt 1 0.5625
vt 0.8125 0.375
vt 0.875 0.1875
vt 1 0.1875
vt 1 0.375
vt 1 0.1875
vt 0.875 0.1875
vt 0.9375 0
vt 0 0.8125
vt 0.125 0.8125
vt 0.0625 1
vt 0 0.9375
vt 0 0.75
vt 0.1875 0.75
vt 0.125 0.9375
vt 0 0.75
vt 0 0.5625
vt 0.1875 0.5625
vt 0.1875 0.75
vt 0 0.5625
vt 0 0.375
vt 0.1875 0.375
vt 0.1875 0.5625
vt 0 0.375
vt 0 0.1875
vt 0.125 0.1875
vt 0.1875 0.375
vt 0.125 0.1875
vt 0 0.1875
vt 0.0625 0
vn 0.18301379086683672 0.9659256086491205 0.18301276159977506
vn 0.4999987823693893 0.7071065147940485 0.5000015943624002
vn 0.6830142617822279 0.25882094904406167 0.6830104205193429
vn 0.6830103515801048 -0.2588213129304242 0.6830141928301292
vn 0.5000019711080764 -0.7071059820023552 0.49999915910381615
vn 0.18301379086683672 -0.9659256086491205 0.18301276159977506
vn 0.25000059619556875 0.9659256086491205 0.06698821133368556
vn 0.6830120678379143 0.707107970386609 0.18301047348036323
vn 0.9330127237395357 0.2588162444739002 0.25000281785723777
vn 0.9330142239208893 -0.25881588057836497 0.2499975958319329
vn 0.6830105239457328 -0.7071085031708114 0.18301417683586735
vn 0.25000059619556875 -0.9659256086491205 0.06698821133368556
vn 0.25000070299875243 0.9659256312759249 -0.06698748647572866
vn 0.6830127018922194 0.7071067811865476 -0.18301270189221933
vn 0.9330125135239875 0.2588197729003839 -0.24999994952688437
vn 0.9330125135239875 -0.258819772900384 -0.24999994952688437
vn 0.6830127018922194 -0.7071067811865476 -0.18301270189221933
vn 0.25000070299875243 -0.9659256312759249 -0.06698748647572866
vn 0.18301276159977506 0.9659256086491205 -0.18301379086683672
vn 0.5000015943624002 0.7071065147940485 -0.4999987823693893
vn 0.6830104205193429 0.25882094904406167 -0.6830142617822279
vn 0.6830141928301293 -0.25882131293042426 -0.6830103515801049
vn 0.49999915910381615 -0.7071059820023552 -0.5000019711080764
vn 0.18301276159977506 -0.9659256086491205 -0.18301379086683672
vn 0.06698821133368556 0.9659256086491205 -0.25000059619556875
vn 0.18301047348036323 0.707107970386609 -0.6830120678379143
vn 0.25000281785723777 0.2588162444739002 -0.9330127237395357
vn 0.2499975958319329 -0.25881588057836497 -0.9330142239208893
vn 0.18301417683586735 -0.7071085031708114 -0.6830105239457328
vn 0.06698821133368556 -0.9659256086491205 -0.25000059619556875
vn -0.06698748647572866 0.9659256312759249 -0.25000070299875243
vn -0.18301270189221933 0.7071067811865476 -0.6830127018922194
vn -0.24999994952688437 0.2588197729003839 -0.9330125135239875
vn -0.24999994952688437 -0.258819772900384 -0.9330125135239875
vn -0.18301270189221933 -0.7071067811865476 -0.6830127018922194
vn -0.06698748647572866 -0.9659256312759249 -0.25000070299875243
vn -0.18301379086683672 0.9659256086491205 -0.18301276159977506
vn -0.4999987823693893 0.7071065147940485 -0.5000015943624002
vn -0.6830142617822279 0.25882094904406167 -0.6830104205193429
vn -0.6830103515801048 -0.2588213129304242 -0.6830141928301292
vn -0.5000019711080764 -0.7071059820023552 -0.49999915910381615
vn -0.18301379086683672 -0.9659256086491205 -0.18301276159977506
vn -0.25000059619556875 0.9659256086491205 -0.06698821133368556
vn -0.6830120678379143 0.707107970386609 -0.18301047348036323
vn -0.9330127237395357 0.2588162444739002 -0.25000281785723777
vn -0.9330142239208893 -0.25881588057836497 -0.2499975958319329
vn -0.6830105239457328 -0.7071085031708114 -0.18301417683586735
vn -0.25000059619556875 -0.9659256086491205 -0.06698821133368556
vn -0.25000070299875243 0.9659256312759249 0.06698748647572866
vn -0.6830127018922194 0.7071067811865476 0.18301270189221933
vn -0.9330125135239875 0.2588197729003839 0.24999994952688437
vn -0.9330125135239875 -0.258819772900384 0.24999994952688437
vn -0.6830127018922194 -0.7071067811865476 0.18301270189221933
vn -0.25000070299875243 -0.9659256312759249 0.06698748647572866
vn -0.18301276159977506 0.9659256086491205 0.18301379086683672
vn -0.5000015943624002 0.7071065147940485 0.4999987823693893
vn -0.6830104205193429 0.25882094904406167 0.6830142617822279
vn -0.6830141928301293 -0.25882131293042426 0.6830103515801049
vn -0.49999915910381615 -0.7071059820023552 0.5000019711080764
vn -0.18301276159977506 -0.9659256086491205 0.18301379086683672
vn -0.06698821133368556 0.9659256086491205 0.25000059619556875
vn -0.18301047348036323 0.707107970386609 0.6830120678379143
vn -0.25000281785723777 0.2588162444739002 0.9330127237395357
vn -0.2499975958319329 -0.25881588057836497 0.9330142239208893
vn -0.18301417683586735 -0.7071085031708114 0.6830105239457328
vn -0.06698821133368556 -0.9659256086491205 0.25000059619556875
vn 0.06698748647572866 0.9659256312759249 0.25000070299875243
vn 0.18301270189221933 0.7071067811865476 0.6830127018922194
vn 0.24999994952688437 0.2588197729003839 0.9330125135239875
vn 0.24999994952688437 -0.258819772900384 0.9330125135239875
vn 0.18301270189221933 -0.7071067811865476 0.6830127018922194
vn 0.06698748647572866 -0.9659256312759249 0.25000070299875243
usemtl m_15612807-0763-60d5-eb09-383031e1c00d
f 83/153/39 88/154/39 82/155/39
f 83/156/40 84/157/40 89/158/40 88/159/40
f 84/160/41 85/161/41 90/162/41 89/163/41
f 85/164/42 86/165/42 91/166/42 90/167/42
f 86/168/43 87/169/43 92/170/43 91/171/43
f 92/172/44 87/173/44 81/174/44
f 88/175/45 93/176/45 82/177/45
f 88/178/46 89/179/46 94/180/46 93/181/46
f 89/182/47 90/183/47 95/184/47 94/185/47
f 90/186/48 91/187/48 96/188/48 95/189/48
f 91/190/49 92/191/49 97/192/49 96/193/49
f 97/194/50 92/195/50 81/196/50
f 93/197/51 98/198/51 82/199/51
f 93/200/52 94/201/52 99/202/52 98/203/52
f 94/204/53 95/205/53 100/206/53 99/207/53
f 95/208/54 96/209/54 101/210/54 100/211/54
f 96/212/55 97/213/55 102/214/55 101/215/55
f 102/216/56 97/217/56 81/218/56
f 98/219/57 103/220/57 82/221/57
f 98/222/58 99/223/58 104/224/58 103/225/58
f 99/226/59 100/227/59 105/228/59 104/229/59
f 100/230/60 101/231/60 106/232/60 105/233/60
f 101/234/61 102/235/61 107/236/61 106/237/61
f 107/238/62 102/239/62 81/240/62
f 103/241/63 108/242/63 82/243/63
f 103/244/64 104/245/64 109/246/64 108/247/64
f 104/248/65 105/249/65 110/250/65 109/251/65
f 105/252/66 106/253/66 111/254/66 110/255/66
f 106/256/67 107/257/67 112/258/67 111/259/67
f 112/260/68 107/261/68 81/262/68
f 108/263/69 113/264/69 82/265/69
f 108/266/70 109/267/70 114/268/70 113/269/70
f 109/270/71 110/271/71 115/272/71 114/273/71
f 110/274/72 111/275/72 116/276/72 115/277/72
f 111/278/73 112/279/73 117/280/73 116/281/73
f 117/282/74 112/283/74 81/284/74
f 113/285/75 118/286/75 82/287/75
f 113/288/76 114/289/76 119/290/76 118/291/76
f 114/292/77 115/293/77 120/294/77 119/295/77
f 115/296/78 116/297/78 121/298/78 120/299/78
f 116/300/79 117/301/79 122/302/79 121/303/79
f 122/304/80 117/305/80 81/306/80
f 118/307/81 123/308/81 82/309/81
f 118/310/82 119/311/82 124/312/82 123/313/82
f 119/314/83 120/315/83 125/316/83 124/317/83
f 120/318/84 121/319/84 126/320/84 125/321/84
f 121/322/85 122/323/85 127/324/85 126/325/85
f 127/326/86 122/327/86 81/328/86
f 123/329/87 128/330/87 82/331/87
f 123/332/88 124/333/88 129/334/88 128/335/88
f 124/336/89 125/337/89 130/338/89 129/339/89
f 125/340/90 126/341/90 131/342/90 130/343/90
f 126/344/91 127/345/91 132/346/91 131/347/91
f 132/348/92 127/349/92 81/350/92
f 128/351/93 133/352/93 82/353/93
f 128/354/94 129/355/94 134/356/94 133/357/94
f 129/358/95 130/359/95 135/360/95 134/361/95
f 130/362/96 131/363/96 136/364/96 135/365/96
f 131/366/97 132/367/97 137/368/97 136/369/97
f 137/370/98 132/371/98 81/372/98
f 133/373/99 138/374/99 82/375/99
f 133/376/100 134/377/100 139/378/100 138/379/100
f 134/380/101 135/381/101 140/382/101 139/383/101
f 135/384/102 136/385/102 141/386/102 140/387/102
f 136/388/103 137/389/103 142/390/103 141/391/103
f 142/392/104 137/393/104 81/394/104
f 138/395/105 83/396/105 82/397/105
f 138/398/106 139/399/106 84/400/106 83/401/106
f 139/402/107 140/403/107 85/404/107 84/405/107
f 140/406/108 141/407/108 86/408/108 85/409/108
f 141/410/109 142/411/109 87/412/109 86/413/109
f 87/414/110 142/415/110 81/416/110